# xmcd
#
# Track frame offsets: 
#        150
#        22327
#        43000
#        63158
#        86931
#
# Disc length: 1450 seconds
#
# Revision: 0
# Processed by: cddbd v1.5.2PL0 Copyright (c) Steve Scherf et al.
# Submitted via: ExactAudioCopy v0.95a5
#
DISCID=4105a805
DTITLE=Daydream - MAY'S
DYEAR=2008
DGENRE=R&B
TTITLE0=Daydream
TTITLE1=LOVE SONG - Imanara Ieru Yo - 
TTITLE2=John Doe feat.U - ZIPPLAND - ENBULL - 
TTITLE3=My Everything - Remix - 
TTITLE4=Daydream - instrumental - 
EXTD=
EXTT0=
EXTT1=
EXTT2=
EXTT3=
EXTT4=
PLAYORDER=
